<?xml version="1.0" encoding="UTF-8" standalone="no"?>
<!-- Created with Inkscape (http://www.inkscape.org/) -->

<svg
   xmlns:dc="http://purl.org/dc/elements/1.1/"
   xmlns:cc="http://creativecommons.org/ns#"
   xmlns:rdf="http://www.w3.org/1999/02/22-rdf-syntax-ns#"
   xmlns:svg="http://www.w3.org/2000/svg"
   xmlns="http://www.w3.org/2000/svg"
   xmlns:sodipodi="http://sodipodi.sourceforge.net/DTD/sodipodi-0.dtd"
   xmlns:inkscape="http://www.inkscape.org/namespaces/inkscape"
   width="500"
   height="500"
   viewBox="0 0 500.00001 500.00001"
   id="svg2"
   version="1.1"
   inkscape:version="0.91 r13725"
   sodipodi:docname="2.svg">
  <defs
     id="defs4" />
  <sodipodi:namedview
     id="base"
     pagecolor="#ffffff"
     bordercolor="#666666"
     borderopacity="1.0"
     inkscape:pageopacity="0.0"
     inkscape:pageshadow="2"
     inkscape:zoom="1"
     inkscape:cx="187.235"
     inkscape:cy="144.8354"
     inkscape:document-units="px"
     inkscape:current-layer="layer1"
     showgrid="false"
     units="px"
     inkscape:window-width="1280"
     inkscape:window-height="961"
     inkscape:window-x="-8"
     inkscape:window-y="-8"
     inkscape:window-maximized="1"
     inkscape:snap-center="true"
     inkscape:snap-nodes="false"
     inkscape:snap-others="false"
     inkscape:snap-global="false" />
  <metadata
     id="metadata7">
    <rdf:RDF>
      <cc:Work
         rdf:about="">
        <dc:format>image/svg+xml</dc:format>
        <dc:type
           rdf:resource="http://purl.org/dc/dcmitype/StillImage" />
        <dc:title></dc:title>
      </cc:Work>
    </rdf:RDF>
  </metadata>
  <g
     inkscape:label="Layer 1"
     inkscape:groupmode="layer"
     id="layer1"
     transform="translate(0,-552.36216)">
    <path
       style="opacity:1;fill:#808000;fill-opacity:1;fill-rule:nonzero;stroke:none;stroke-width:16;stroke-linecap:round;stroke-linejoin:round;stroke-miterlimit:4;stroke-dasharray:none;stroke-dashoffset:0;stroke-opacity:1"
       id="path5942"
       sodipodi:type="arc"
       sodipodi:cx="250"
       sodipodi:cy="803.36218"
       sodipodi:rx="239"
       sodipodi:ry="235"
       sodipodi:start="0.14079693"
       sodipodi:end="0.11372635"
       sodipodi:open="true"
       d="M 486.63497,836.34025 A 239,235 0 0 1 218.06282,1036.2546 239,235 0 0 1 12.932755,773.53636 239,235 0 0 1 278.72843,570.06608 239,235 0 0 1 487.45609,830.0303" />
    <g
       id="g5920"
       transform="matrix(0.71523179,0,0,0.69578313,58.960264,258.48667)">
      <path
         sodipodi:nodetypes="ccccccc"
         inkscape:connector-curvature="0"
         transform="translate(0,552.36216)"
         id="path4231"
         d="m 47,105 0,60 448,-2 -1,-85 -258,0 0,27 z"
         style="opacity:1;fill:#b3b3b3;fill-opacity:1;fill-rule:nonzero;stroke:none;stroke-width:16;stroke-linecap:round;stroke-linejoin:round;stroke-miterlimit:4;stroke-dasharray:none;stroke-dashoffset:0;stroke-opacity:1" />
      <rect
         y="714.36218"
         x="46"
         height="220"
         width="449"
         id="rect4208"
         style="opacity:1;fill:#333333;fill-opacity:1;fill-rule:nonzero;stroke:none;stroke-width:16;stroke-linecap:round;stroke-linejoin:round;stroke-miterlimit:4;stroke-dasharray:none;stroke-dashoffset:0;stroke-opacity:1" />
      <rect
         y="677.36218"
         x="164"
         height="24"
         width="42"
         id="rect4233"
         style="opacity:1;fill:#000000;fill-opacity:1;fill-rule:nonzero;stroke:none;stroke-width:16;stroke-linecap:round;stroke-linejoin:round;stroke-miterlimit:4;stroke-dasharray:none;stroke-dashoffset:0;stroke-opacity:1" />
      <path
         d="m 262.90104,644.48484 a 10,8 0 0 1 -11.23732,6.80559 10,8 0 0 1 -8.58285,-8.94359 10,8 0 0 1 11.12116,-6.92665 10,8 0 0 1 8.73337,8.84984"
         sodipodi:open="true"
         sodipodi:end="0.11372635"
         sodipodi:start="0.14079693"
         sodipodi:ry="8"
         sodipodi:rx="10"
         sodipodi:cy="643.36218"
         sodipodi:cx="253"
         sodipodi:type="arc"
         id="path4235"
         style="opacity:1;fill:#000000;fill-opacity:1;fill-rule:nonzero;stroke:none;stroke-width:16;stroke-linecap:round;stroke-linejoin:round;stroke-miterlimit:4;stroke-dasharray:none;stroke-dashoffset:0;stroke-opacity:1" />
      <path
         d="m 292.81446,673.97753 a 18.75,17.75 0 0 1 -21.06999,15.09991 18.75,17.75 0 0 1 -16.09284,-19.84361 18.75,17.75 0 0 1 20.85217,-15.3685 18.75,17.75 0 0 1 16.37508,19.6356"
         sodipodi:open="true"
         sodipodi:end="0.11372635"
         sodipodi:start="0.14079693"
         sodipodi:ry="17.75"
         sodipodi:rx="18.75"
         sodipodi:cy="671.48663"
         sodipodi:cx="274.25"
         sodipodi:type="arc"
         id="path4237"
         style="opacity:1;fill:#aa0000;fill-opacity:1;fill-rule:nonzero;stroke:none;stroke-width:16;stroke-linecap:round;stroke-linejoin:round;stroke-miterlimit:4;stroke-dasharray:none;stroke-dashoffset:0;stroke-opacity:1" />
      <rect
         y="650.36218"
         x="301"
         height="41"
         width="57"
         id="rect4239"
         style="opacity:1;fill:#1a1a1a;fill-opacity:1;fill-rule:nonzero;stroke:none;stroke-width:16;stroke-linecap:round;stroke-linejoin:round;stroke-miterlimit:4;stroke-dasharray:none;stroke-dashoffset:0;stroke-opacity:1" />
      <rect
         y="639.36218"
         x="370"
         height="65"
         width="80"
         id="rect4241"
         style="opacity:1;fill:#1a1a1a;fill-opacity:1;fill-rule:nonzero;stroke:none;stroke-width:16;stroke-linecap:round;stroke-linejoin:round;stroke-miterlimit:4;stroke-dasharray:none;stroke-dashoffset:0;stroke-opacity:1" />
      <rect
         y="652.36218"
         x="382"
         height="37"
         width="55"
         id="rect4243"
         style="opacity:1;fill:#ffffff;fill-opacity:1;fill-rule:nonzero;stroke:none;stroke-width:16;stroke-linecap:round;stroke-linejoin:round;stroke-miterlimit:4;stroke-dasharray:none;stroke-dashoffset:0;stroke-opacity:1" />
      <rect
         y="915.36218"
         x="46"
         height="28"
         width="449"
         id="rect4266"
         style="opacity:1;fill:#cccccc;fill-opacity:1;fill-rule:nonzero;stroke:none;stroke-width:16;stroke-linecap:round;stroke-linejoin:round;stroke-miterlimit:4;stroke-dasharray:none;stroke-dashoffset:0;stroke-opacity:1" />
      <g
         transform="matrix(1.2032086,0,0,1.2486487,-83.454559,-269.54145)"
         id="g4224">
        <path
           style="opacity:1;fill:#e6e6e6;fill-opacity:1;fill-rule:nonzero;stroke:none;stroke-width:16;stroke-linecap:round;stroke-linejoin:round;stroke-miterlimit:4;stroke-dasharray:none;stroke-dashoffset:0;stroke-opacity:1"
           id="path4212"
           sodipodi:type="arc"
           sodipodi:cx="297.5"
           sodipodi:cy="868.86218"
           sodipodi:rx="93.5"
           sodipodi:ry="92.5"
           sodipodi:start="0.14079693"
           sodipodi:end="0.11372635"
           sodipodi:open="true"
           d="M 390.07477,881.84291 A 93.5,92.5 0 0 1 285.00575,960.5326 93.5,92.5 0 0 1 204.75612,857.12223 93.5,92.5 0 0 1 308.73895,777.03287 93.5,92.5 0 0 1 390.396,879.35921" />
        <path
           style="opacity:1;fill:#000000;fill-opacity:1;fill-rule:nonzero;stroke:none;stroke-width:16;stroke-linecap:round;stroke-linejoin:round;stroke-miterlimit:4;stroke-dasharray:none;stroke-dashoffset:0;stroke-opacity:1"
           id="path4214"
           sodipodi:type="arc"
           sodipodi:cx="297.5"
           sodipodi:cy="868.86218"
           sodipodi:rx="85.5"
           sodipodi:ry="84.5"
           sodipodi:start="0.14079693"
           sodipodi:end="0.11372635"
           sodipodi:open="true"
           d="m 382.15393,880.72025 a 85.5,84.5 0 0 1 -96.07916,71.8841 85.5,84.5 0 0 1 -73.38335,-94.46677 85.5,84.5 0 0 1 95.08591,-73.16272 85.5,84.5 0 0 1 74.67035,93.4765" />
      </g>
      <rect
         y="630.36218"
         x="167"
         height="26"
         width="68"
         id="rect4289"
         style="opacity:1;fill:#cccccc;fill-opacity:1;fill-rule:nonzero;stroke:none;stroke-width:16;stroke-linecap:round;stroke-linejoin:round;stroke-miterlimit:4;stroke-dasharray:none;stroke-dashoffset:0;stroke-opacity:1" />
      <rect
         y="611.36218"
         x="101"
         height="45"
         width="65"
         id="rect4291"
         style="opacity:1;fill:#cccccc;fill-opacity:1;fill-rule:nonzero;stroke:none;stroke-width:16;stroke-linecap:round;stroke-linejoin:round;stroke-miterlimit:4;stroke-dasharray:none;stroke-dashoffset:0;stroke-opacity:1" />
      <rect
         y="676.36218"
         x="42"
         height="37"
         width="12"
         id="rect4293"
         style="opacity:1;fill:#333333;fill-opacity:1;fill-rule:nonzero;stroke:none;stroke-width:16;stroke-linecap:round;stroke-linejoin:round;stroke-miterlimit:4;stroke-dasharray:none;stroke-dashoffset:0;stroke-opacity:1" />
      <path
         d="M 367.08466,828.70258 A 92.5,91.5 0 0 1 263.13938,906.54157 92.5,91.5 0 0 1 183.74803,804.24915 92.5,91.5 0 0 1 286.61874,725.02561 92.5,91.5 0 0 1 367.40246,826.24573"
         sodipodi:open="true"
         sodipodi:end="0.11372635"
         sodipodi:start="0.14079693"
         sodipodi:ry="91.5"
         sodipodi:rx="92.5"
         sodipodi:cy="815.86218"
         sodipodi:cx="275.5"
         sodipodi:type="arc"
         id="path5858"
         style="opacity:1;fill:#483745;fill-opacity:1;fill-rule:nonzero;stroke:none;stroke-width:16;stroke-linecap:round;stroke-linejoin:round;stroke-miterlimit:4;stroke-dasharray:none;stroke-dashoffset:0;stroke-opacity:1" />
      <path
         d="m 355.69351,828.36942 a 81.5,82 0 0 1 -91.58422,69.75735 81.5,82 0 0 1 -69.95021,-91.6719 81.5,82 0 0 1 90.63743,-70.99814 81.5,82 0 0 1 71.17701,90.71092"
         sodipodi:open="true"
         sodipodi:end="0.11372635"
         sodipodi:start="0.14079693"
         sodipodi:ry="82"
         sodipodi:rx="81.5"
         sodipodi:cy="816.86218"
         sodipodi:cx="275"
         sodipodi:type="arc"
         id="path5858-9"
         style="opacity:1;fill:#225500;fill-opacity:1;fill-rule:nonzero;stroke:none;stroke-width:16;stroke-linecap:round;stroke-linejoin:round;stroke-miterlimit:4;stroke-dasharray:none;stroke-dashoffset:0;stroke-opacity:1" />
      <path
         d="m 297.27735,818.01966 a 22.5,22.5 0 0 1 -25.28399,19.14073 22.5,22.5 0 0 1 -19.31141,-25.15387 22.5,22.5 0 0 1 25.02261,-19.4812 22.5,22.5 0 0 1 19.65009,24.89019"
         sodipodi:open="true"
         sodipodi:end="0.11372635"
         sodipodi:start="0.14079693"
         sodipodi:ry="22.5"
         sodipodi:rx="22.5"
         sodipodi:cy="814.86218"
         sodipodi:cx="275"
         sodipodi:type="arc"
         id="path5858-9-7"
         style="opacity:1;fill:#222b00;fill-opacity:1;fill-rule:nonzero;stroke:none;stroke-width:16;stroke-linecap:round;stroke-linejoin:round;stroke-miterlimit:4;stroke-dasharray:none;stroke-dashoffset:0;stroke-opacity:1" />
      <path
         d="m 289.39115,811.83567 a 11,10.5 0 0 1 -12.36106,8.93234 11,10.5 0 0 1 -9.44113,-11.73847 11,10.5 0 0 1 12.23327,-9.09123 11,10.5 0 0 1 9.60671,11.61543"
         sodipodi:open="true"
         sodipodi:end="0.11372635"
         sodipodi:start="0.14079693"
         sodipodi:ry="10.5"
         sodipodi:rx="11"
         sodipodi:cy="810.36218"
         sodipodi:cx="278.5"
         sodipodi:type="arc"
         id="path5858-9-7-6"
         style="opacity:1;fill:#e3e2db;fill-opacity:1;fill-rule:nonzero;stroke:none;stroke-width:16;stroke-linecap:round;stroke-linejoin:round;stroke-miterlimit:4;stroke-dasharray:none;stroke-dashoffset:0;stroke-opacity:1" />
      <path
         d="m 268.96042,825.42351 a 4,4 0 0 1 -4.49493,3.4028 4,4 0 0 1 -3.43314,-4.4718 4,4 0 0 1 4.44846,-3.46332 4,4 0 0 1 3.49335,4.42492"
         sodipodi:open="true"
         sodipodi:end="0.11372635"
         sodipodi:start="0.14079693"
         sodipodi:ry="4"
         sodipodi:rx="4"
         sodipodi:cy="824.86218"
         sodipodi:cx="265"
         sodipodi:type="arc"
         id="path5858-9-7-6-5"
         style="opacity:1;fill:#e3e2db;fill-opacity:1;fill-rule:nonzero;stroke:none;stroke-width:16;stroke-linecap:round;stroke-linejoin:round;stroke-miterlimit:4;stroke-dasharray:none;stroke-dashoffset:0;stroke-opacity:1" />
    </g>
  </g>
</svg>
