<?xml version="1.0" encoding="UTF-8" standalone="no"?>
<!-- Created with Inkscape (http://www.inkscape.org/) -->

<svg
   xmlns:dc="http://purl.org/dc/elements/1.1/"
   xmlns:cc="http://creativecommons.org/ns#"
   xmlns:rdf="http://www.w3.org/1999/02/22-rdf-syntax-ns#"
   xmlns:svg="http://www.w3.org/2000/svg"
   xmlns="http://www.w3.org/2000/svg"
   xmlns:sodipodi="http://sodipodi.sourceforge.net/DTD/sodipodi-0.dtd"
   xmlns:inkscape="http://www.inkscape.org/namespaces/inkscape"
   width="600"
   height="600"
   viewBox="0 0 600.00001 600.00001"
   id="svg2"
   version="1.1"
   inkscape:version="0.91 r13725"
   sodipodi:docname="jingyu.svg">
  <defs
     id="defs4">
    <inkscape:perspective
       sodipodi:type="inkscape:persp3d"
       inkscape:vp_x="0 : 300 : 1"
       inkscape:vp_y="0 : 1000 : 0"
       inkscape:vp_z="600.00001 : 300 : 1"
       inkscape:persp3d-origin="300 : 200 : 1"
       id="perspective4552" />
  </defs>
  <sodipodi:namedview
     id="base"
     pagecolor="#ffffff"
     bordercolor="#666666"
     borderopacity="1.0"
     inkscape:pageopacity="0.0"
     inkscape:pageshadow="2"
     inkscape:zoom="2"
     inkscape:cx="358.77614"
     inkscape:cy="307.14286"
     inkscape:document-units="px"
     inkscape:current-layer="layer1"
     showgrid="false"
     units="px"
     showguides="false"
     inkscape:window-width="1280"
     inkscape:window-height="961"
     inkscape:window-x="-8"
     inkscape:window-y="-8"
     inkscape:window-maximized="1"
     inkscape:snap-to-guides="false"
     inkscape:snap-page="true"
     inkscape:snap-grids="false"
     inkscape:guide-bbox="true"
     inkscape:snap-bbox="true">
    <sodipodi:guide
       position="534.00001,262"
       orientation="0,1"
       id="guide4453" />
    <sodipodi:guide
       position="299,555.00001"
       orientation="1,0"
       id="guide4456" />
  </sodipodi:namedview>
  <metadata
     id="metadata7">
    <rdf:RDF>
      <cc:Work
         rdf:about="">
        <dc:format>image/svg+xml</dc:format>
        <dc:type
           rdf:resource="http://purl.org/dc/dcmitype/StillImage" />
        <dc:title></dc:title>
      </cc:Work>
    </rdf:RDF>
  </metadata>
  <g
     inkscape:label="Layer 1"
     inkscape:groupmode="layer"
     id="layer1"
     transform="translate(0,-452.36216)">
    <path
       style="opacity:1;fill:#004455;fill-opacity:1;fill-rule:nonzero;stroke:none;stroke-width:16;stroke-linecap:round;stroke-linejoin:round;stroke-miterlimit:4;stroke-dasharray:none;stroke-dashoffset:0;stroke-opacity:1"
       id="path4508"
       sodipodi:type="arc"
       sodipodi:cx="302"
       sodipodi:cy="754.86218"
       sodipodi:rx="272"
       sodipodi:ry="271.5"
       sodipodi:start="0.14079693"
       sodipodi:end="0.11372635"
       sodipodi:open="true"
       d="M 571.30842,792.96238 A 272,271.5 0 0 1 265.65308,1023.9272 272,271.5 0 0 1 32.19962,720.40384 272,271.5 0 0 1 334.69512,485.33073 272,271.5 0 0 1 572.24291,785.67237" />
    <path
       style="opacity:1;fill:#ffff00;fill-opacity:1;fill-rule:nonzero;stroke:none;stroke-width:16;stroke-linecap:round;stroke-linejoin:round;stroke-miterlimit:4;stroke-dasharray:none;stroke-dashoffset:0;stroke-opacity:1"
       d="m 395,206 c 5.78661,41.18673 32.55748,56.72604 62,69 -5.11351,46.75336 -9.27144,83.6083 -58,84 C 299.66962,359.79846 379,204 213,209 63.926555,211.86117 72.322138,413.44477 221.19531,434.77148 377.21167,457.12148 490,427.5 473,278 c 29.21229,3.71455 48.41805,-15.43831 59,-41 -36.4302,-11.19435 -63,16 -63,16 -12.44103,-34.64525 -48.83392,-47 -74,-47 z M 132.52148,306.00977 c 0.60116,-0.0249 1.20344,-0.003 1.80079,0.0664 6.00244,0.69338 10.29341,5.8811 9.60742,11.61524 l -0.0391,0.28125 c -0.84781,5.71476 -6.36893,9.7049 -12.36132,8.93359 -5.99109,-0.772 -10.20675,-6.01431 -9.43946,-11.73828 0.67907,-5.06915 5.08295,-8.93542 10.43164,-9.1582 z"
       transform="translate(0,452.36216)"
       id="rect4625"
       inkscape:connector-curvature="0"
       sodipodi:nodetypes="ccscsccccccccccc" />
  </g>
</svg>
